<svg width="24" height="24" viewBox="0 0 24 24" fill="none" xmlns="http://www.w3.org/2000/svg">
<path d="M21.9999 12H15.9999L13.9999 15H9.99988L7.99988 12H1.99988M21.9999 12V18C21.9999 18.5304 21.7892 19.0391 21.4141 19.4142C21.039 19.7893 20.5303 20 19.9999 20H3.99988C3.46944 20 2.96074 19.7893 2.58566 19.4142C2.21059 19.0391 1.99988 18.5304 1.99988 18V12M21.9999 12L18.5499 5.11C18.3843 4.77679 18.1291 4.49637 17.8128 4.30028C17.4966 4.10419 17.132 4.0002 16.7599 4H7.23988C6.86779 4.0002 6.50314 4.10419 6.18692 4.30028C5.8707 4.49637 5.61546 4.77679 5.44988 5.11L1.99988 12" stroke="currentColor" stroke-width="2" stroke-linecap="round" stroke-linejoin="round"/>
</svg>
