<svg width="16" height="16" viewBox="0 0 16 16" fill="none" xmlns="http://www.w3.org/2000/svg">
<path d="M13.6973 13.6792C13.9377 13.696 14.1101 13.7254 14.2147 13.7673C14.3296 13.8092 14.408 13.8637 14.4498 13.9308C14.4916 13.9895 14.5073 14.0566 14.4969 14.1321C14.4864 14.2075 14.4812 14.283 14.4812 14.3585C14.2094 14.4507 13.8645 14.522 13.4465 14.5723C13.0388 14.6226 12.5894 14.6604 12.0982 14.6855C11.6069 14.7107 11.0948 14.7233 10.5617 14.7233C10.0287 14.7317 9.51134 14.7358 9.00965 14.7358C8.50796 14.7358 8.04285 14.7358 7.61433 14.7358C7.1858 14.7358 6.83044 14.74 6.54824 14.7484C5.68074 14.7904 5.00659 14.8323 4.52581 14.8742C4.04502 14.9161 3.71579 14.9581 3.53811 15C3.22455 14.9916 2.97894 14.9623 2.80125 14.9119C2.61312 14.8616 2.46157 14.7987 2.3466 14.7233C2.23163 14.6478 2.13234 14.5639 2.04872 14.4717C1.96511 14.3711 1.86581 14.2704 1.75084 14.1698C1.81356 14.1027 1.82923 14.0063 1.79788 13.8805C1.75607 13.7547 1.65678 13.6625 1.5 13.6038C1.62542 13.587 1.71949 13.5367 1.7822 13.4528C1.84491 13.369 1.85014 13.3061 1.79788 13.2642C2.05917 13.2306 2.34137 13.2096 2.64448 13.2013C2.93713 13.1929 3.22978 13.1887 3.52243 13.1887C3.81508 13.1803 4.09206 13.1677 4.35335 13.1509C4.61465 13.1258 4.84459 13.0881 5.04317 13.0377C5.84797 13.0377 6.68934 13.0377 7.56729 13.0377C8.44525 13.0294 9.26572 13.0168 10.0287 13C10.3005 13.0419 10.6192 13.0671 10.985 13.0755C11.3613 13.0839 11.7271 13.1048 12.0825 13.1384C12.4483 13.1635 12.7775 13.2138 13.0702 13.2893C13.3733 13.3648 13.5823 13.4948 13.6973 13.6792Z" fill="#2837FA"/>
<path d="M7.702 11.126C6.826 11.126 6.046 10.94 5.362 10.568C4.678 10.184 4.138 9.65 3.742 8.966C3.358 8.27 3.166 7.454 3.166 6.518C3.166 5.57 3.364 4.748 3.76 4.052C4.168 3.356 4.72 2.822 5.416 2.45C6.112 2.066 6.892 1.874 7.756 1.874C8.62 1.874 9.4 2.066 10.096 2.45C10.792 2.822 11.344 3.356 11.752 4.052C12.16 4.736 12.364 5.546 12.364 6.482C12.364 7.43 12.154 8.252 11.734 8.948C11.326 9.644 10.768 10.184 10.06 10.568C9.364 10.94 8.578 11.126 7.702 11.126ZM7.684 9.056C8.056 9.056 8.41 8.966 8.746 8.786C9.082 8.594 9.358 8.312 9.574 7.94C9.79 7.556 9.898 7.07 9.898 6.482C9.898 5.918 9.796 5.45 9.592 5.078C9.388 4.694 9.118 4.412 8.782 4.232C8.458 4.04 8.104 3.944 7.72 3.944C7.348 3.944 7 4.04 6.676 4.232C6.364 4.412 6.112 4.694 5.92 5.078C5.74 5.45 5.65 5.93 5.65 6.518C5.65 7.082 5.74 7.556 5.92 7.94C6.1 8.312 6.346 8.594 6.658 8.786C6.97 8.966 7.312 9.056 7.684 9.056Z" fill="#27272A"/>
</svg>
